<?xml version="1.0" standalone="no"?>
<!DOCTYPE svg PUBLIC "-//W3C//DTD SVG 20010904//EN"
 "http://www.w3.org/TR/2001/REC-SVG-20010904/DTD/svg10.dtd">
<svg version="1.0" xmlns="http://www.w3.org/2000/svg"
 width="700.000000pt" height="700.000000pt" viewBox="0 0 700.000000 700.000000"
 preserveAspectRatio="xMidYMid meet">
<metadata>
Created by potrace 1.14, written by Peter Selinger 2001-2017
</metadata>
<g transform="translate(0.000000,700.000000) scale(0.100000,-0.100000)"
fill="#000000" stroke="none">
<path d="M1597 5734 c-69 -16 -162 -61 -228 -110 -99 -72 -176 -184 -221 -319
l-23 -70 0 -1610 0 -1610 23 -70 c60 -181 165 -303 330 -385 123 -61 99 -60
1105 -60 l917 0 0 -47 c0 -147 48 -270 139 -356 67 -64 117 -92 203 -112 94
-22 1972 -22 2066 0 86 20 136 48 203 112 69 66 114 153 129 248 7 48 10 384
8 1045 l-3 975 -24 60 c-47 119 -119 196 -230 249 -64 30 -72 31 -218 34
l-153 4 0 104 c0 157 -28 204 -120 204 -93 0 -120 -45 -120 -200 l0 -110 -250
0 -250 0 0 970 c0 1058 3 1003 -56 1049 l-27 21 -1571 -1 c-1309 -1 -1581 -3
-1629 -15z m3023 -1129 l0 -895 -125 0 -125 0 0 105 c0 158 -28 205 -120 205
-93 0 -120 -45 -120 -199 l0 -109 -152 -4 c-147 -3 -155 -4 -219 -34 -111 -53
-183 -131 -230 -249 -22 -57 -23 -73 -27 -367 l-4 -308 -916 0 c-1006 0 -980
1 -1105 -61 -34 -17 -66 -34 -72 -40 -5 -5 -13 -9 -17 -9 -5 0 -7 579 -6 1288
l3 1287 29 62 c50 109 159 193 275 213 25 4 695 8 1489 9 l1442 1 0 -895z
m1378 -2654 l-3 -619 -31 -39 c-63 -79 21 -73 -1089 -73 -1110 0 -1026 -6
-1089 73 l-31 39 -3 619 -2 619 1125 0 1125 0 -2 -619z"/>
<path d="M2926 4979 c-52 -41 -56 -61 -56 -279 l0 -200 -209 0 c-196 0 -210
-1 -235 -21 -73 -57 -73 -151 0 -208 25 -20 39 -21 235 -21 l209 0 0 -450 c0
-490 -1 -485 56 -529 36 -29 112 -29 148 0 57 44 56 39 56 529 l0 450 209 0
c196 0 210 1 235 21 32 25 56 69 56 104 0 35 -24 79 -56 104 -25 20 -39 21
-235 21 l-209 0 0 200 c0 218 -4 238 -56 279 -19 15 -41 21 -74 21 -33 0 -55
-6 -74 -21z"/>
<path d="M3937 2344 c-4 -4 -7 -76 -7 -161 l0 -153 165 0 166 0 -3 158 -3 157
-156 3 c-85 1 -158 -1 -162 -4z"/>
<path d="M4410 2190 l0 -160 155 0 155 0 0 160 0 160 -155 0 -155 0 0 -160z"/>
<path d="M4877 2343 c-4 -3 -7 -75 -7 -160 l0 -153 160 0 160 0 0 160 0 160
-153 0 c-85 0 -157 -3 -160 -7z"/>
<path d="M5347 2343 c-4 -3 -7 -75 -7 -160 l0 -153 160 0 160 0 0 160 0 160
-153 0 c-85 0 -157 -3 -160 -7z"/>
<path d="M3940 1720 l0 -160 155 0 155 0 0 160 0 160 -155 0 -155 0 0 -160z"/>
<path d="M4407 1873 c-4 -3 -7 -75 -7 -160 l0 -153 160 0 160 0 0 160 0 160
-153 0 c-85 0 -157 -3 -160 -7z"/>
<path d="M4874 1867 c-2 -7 -3 -78 -2 -157 l3 -145 158 -3 157 -3 0 161 0 160
-155 0 c-118 0 -157 -3 -161 -13z"/>
</g>
</svg>
